# xmcd
#
# Track frame offsets:
#	150
#	29625
#	61436
#	93268
#	122365
#	149911
#	179404
#	207365
#	235493
#	269966
#	275087
#	280135
#	321193
#
# Disc length: 4649 seconds
#
# Revision: 0
# Processed by: cddbd v1.5.2PL0 Copyright (c) Steve Scherf et al.
# Submitted via: EasyCDDAExtractor 5.0.2.1
#
DISCID=da12270d
DTITLE=Artist. Varios - ELECTRO X2
DYEAR=2007
DGENRE=Dance
TTITLE0=Mission - Adam marshall
TTITLE1=Semilla - Aldo Cadiz
TTITLE2=Anomalia - Alex D"Elia
TTITLE3=Emphedrine - Alex D"Elia
TTITLE4=Road to Babylon - Amox and Kemi
TTITLE5=Dial Code - Ampere
TTITLE6=Frontstep - Ampere
TTITLE7=The Unknown - Ampere
TTITLE8=Forbidden Love - Asthro and P. Carrilho
TTITLE9=The 220v. Acapella - Asthro and P. Carrilho
TTITLE10=Forbidden Acapella - Asthro and P. Carrilho
TTITLE11=Apparence - Bloody Mary
TTITLE12=Amma P.T1 - Bloody Mary
EXTD=
EXTT0=
EXTT1=
EXTT2=
EXTT3=
EXTT4=
EXTT5=
EXTT6=
EXTT7=
EXTT8=
EXTT9=
EXTT10=
EXTT11=
EXTT12=
PLAYORDER=
